{
  "accessors": [
    {
      "bufferView": 2,
      "componentType": 5126,
      "count": 88,
      "max": [
        0.5410599708557129,
        0.14291000366210938,
        1.1363500356674194
      ],
      "min": [
        -0.090829998254776,
        -0.14291000366210938,
        -0.033900000154972076
      ],
      "type": "VEC3"
    },
    {
      "bufferView": 2,
      "byteOffset": 1056,
      "componentType": 5126,
      "count": 88,
      "max": [
        0.9402564167976379,
        1.0,
        0.9911194443702698
      ],
      "min": [
        -0.9833652377128601,
        -1.0,
        -0.9559856057167053
      ],
      "type": "VEC3"
    },
    {
      "bufferView": 3,
      "componentType": 5126,
      "count": 88,
      "max": [
        0.9844455718994141,
        0.9992454051971436,
        0.9103132486343384,
        1.0
      ],
      "min": [
        -0.981289803981781,
        -0.999832034111023,
        -0.9290977716445923,
        -1.0
      ],
      "type": "VEC4"
    },
    {
      "bufferView": 1,
      "componentType": 5126,
      "count": 88,
      "max": [
        0.8508300185203552,
        0.9915400147438049
      ],
      "min": [
        0.24368000030517578,
        0.008460000157356262
      ],
      "type": "VEC2"
    },
    {
      "bufferView": 1,
      "byteOffset": 704,
      "componentType": 5126,
      "count": 88,
      "max": [
        0.8508300185203552,
        0.9915400147438049
      ],
      "min": [
        0.24368000030517578,
        0.008460000157356262
      ],
      "type": "VEC2"
    },
    {
      "bufferView": 1,
      "byteOffset": 1408,
      "componentType": 5126,
      "count": 88,
      "max": [
        0.8508300185203552,
        0.9915400147438049
      ],
      "min": [
        0.24368000030517578,
        0.008460000157356262
      ],
      "type": "VEC2"
    },
    {
      "bufferView": 0,
      "componentType": 5125,
      "count": 264,
      "type": "SCALAR"
    }
  ],
  "asset": {
    "extras": {
      "author": "Kyan0s (https://sketchfab.com/kyan0s)",
      "license": "CC-BY-4.0 (http://creativecommons.org/licenses/by/4.0/)",
      "source": "https://sketchfab.com/3d-models/broom-blacksmiths-workshop-assets-e2652469b0974e33955e1a3ced36be19",
      "title": "Broom - Blacksmith's workshop assets"
    },
    "generator": "Sketchfab-12.67.0",
    "version": "2.0"
  },
  "bufferViews": [
    {
      "buffer": 0,
      "byteLength": 1056,
      "name": "floatBufferViews",
      "target": 34963
    },
    {
      "buffer": 0,
      "byteLength": 2112,
      "byteOffset": 1056,
      "byteStride": 8,
      "name": "floatBufferViews",
      "target": 34962
    },
    {
      "buffer": 0,
      "byteLength": 2112,
      "byteOffset": 3168,
      "byteStride": 12,
      "name": "floatBufferViews",
      "target": 34962
    },
    {
      "buffer": 0,
      "byteLength": 1408,
      "byteOffset": 5280,
      "byteStride": 16,
      "name": "floatBufferViews",
      "target": 34962
    }
  ],
  "buffers": [
    {
      "byteLength": 6688,
      "uri": "scene.bin"
    }
  ],
  "images": [
    {
      "uri": "textures/broom_baseColor.png"
    },
    {
      "uri": "textures/broom_metallicRoughness.png"
    },
    {
      "uri": "textures/broom_normal.png"
    }
  ],
  "materials": [
    {
      "doubleSided": true,
      "name": "broom",
      "normalTexture": {
        "index": 2
      },
      "occlusionTexture": {
        "index": 1
      },
      "pbrMetallicRoughness": {
        "baseColorTexture": {
          "index": 0
        },
        "metallicFactor": 0.0,
        "metallicRoughnessTexture": {
          "index": 1
        }
      }
    }
  ],
  "meshes": [
    {
      "name": "broom_0",
      "primitives": [
        {
          "attributes": {
            "NORMAL": 1,
            "POSITION": 0,
            "TANGENT": 2,
            "TEXCOORD_0": 3,
            "TEXCOORD_1": 4,
            "TEXCOORD_2": 5
          },
          "indices": 6,
          "material": 0,
          "mode": 4
        }
      ]
    }
  ],
  "nodes": [
    {
      "children": [
        1
      ],
      "matrix": [
        1.0,
        0.0,
        0.0,
        0.0,
        0.0,
        2.220446049250313e-16,
        -1.0,
        0.0,
        0.0,
        1.0,
        2.220446049250313e-16,
        0.0,
        0.0,
        0.0,
        0.0,
        1.0
      ],
      "name": "Sketchfab_model"
    },
    {
      "children": [
        2
      ],
      "name": "Root"
    },
    {
      "children": [
        3
      ],
      "name": "broom"
    },
    {
      "mesh": 0,
      "name": "broom_0"
    }
  ],
  "samplers": [
    {
      "magFilter": 9729,
      "minFilter": 9987,
      "wrapS": 10497,
      "wrapT": 10497
    }
  ],
  "scene": 0,
  "scenes": [
    {
      "name": "Sketchfab_Scene",
      "nodes": [
        0
      ]
    }
  ],
  "textures": [
    {
      "sampler": 0,
      "source": 0
    },
    {
      "sampler": 0,
      "source": 1
    },
    {
      "sampler": 0,
      "source": 2
    }
  ]
}
